<svg width="44" height="44" viewBox="0 0 44 44" fill="none" xmlns="http://www.w3.org/2000/svg">
<path d="M21.9995 39.875C21.8029 39.8752 21.6085 39.8334 21.4294 39.7522C20.8299 39.479 6.72052 32.9358 4.46002 21.2813C3.98201 19.2672 3.94438 17.1736 4.34969 15.1435C4.75501 13.1135 5.59371 11.1948 6.80852 9.51865C7.76745 8.36732 8.9752 7.44867 10.3408 6.83194C11.7063 6.21522 13.1941 5.9165 14.6919 5.95832H14.7395C16.1816 5.95308 17.6019 6.30986 18.8703 6.99596C20.1387 7.68205 21.2147 8.67552 21.9995 9.88532C22.7881 8.66975 23.8704 7.67265 25.1464 6.98625C26.4225 6.29984 27.851 5.9463 29.2999 5.95832C30.7998 5.91454 32.29 6.21231 33.658 6.8291C35.0259 7.4459 36.2357 8.36558 37.196 9.51865C38.4095 11.1955 39.2468 13.1144 39.6508 15.1444C40.0549 17.1744 40.0161 19.2677 39.5372 21.2813C37.2785 32.9358 23.1692 39.479 22.5697 39.7522C22.3906 39.8334 22.1962 39.8752 21.9995 39.875ZM14.7432 8.70832H14.712C13.6173 8.66228 12.5266 8.86885 11.5245 9.31203C10.5225 9.75521 9.63584 10.4231 8.93335 11.264C7.97577 12.6277 7.32184 14.1809 7.0157 15.8188C6.70955 17.4568 6.75831 19.1413 7.15868 20.7588C8.90952 29.7862 19.42 35.6528 22.0087 36.9692C24.5882 35.6528 35.0987 29.7862 36.8477 20.7588C37.2489 19.1418 37.2987 17.4576 36.9938 15.8197C36.689 14.1818 36.0365 12.6283 35.0804 11.264C34.3758 10.4217 33.4867 9.75308 32.482 9.30988C31.4773 8.86667 30.3841 8.66083 29.287 8.70832H29.2559C27.9237 8.78575 26.6452 9.25966 25.5845 10.0692C24.5237 10.8787 23.7292 11.9869 23.303 13.2513C23.2098 13.5227 23.0343 13.7584 22.8011 13.9256C22.5679 14.0928 22.2883 14.1833 22.0014 14.1845C21.7138 14.1834 21.4338 14.0922 21.2007 13.9239C20.9676 13.7555 20.793 13.5184 20.7015 13.2458C20.2738 11.9817 19.4781 10.8743 18.4164 10.0657C17.3547 9.25721 16.0755 8.7845 14.7432 8.70832Z" fill="#1A1B1B"/>
</svg>
