<svg width="44" height="44" viewBox="0 0 44 44" fill="none" xmlns="http://www.w3.org/2000/svg">
<path d="M39.4724 37.5276L32.4305 30.4857C35.1 27.3152 36.4419 23.2362 36.1761 19.1C35.9102 14.9639 34.0572 11.0902 31.0038 8.28752C27.9503 5.48483 23.9325 3.9697 19.7887 4.05837C15.645 4.14704 11.6956 5.83265 8.76485 8.76339C5.83412 11.6941 4.1485 15.6435 4.05984 19.7873C3.97117 23.931 5.48629 27.9489 8.28898 31.0023C11.0917 34.0557 14.9653 35.9087 19.1015 36.1746C23.2377 36.4404 27.3167 35.0986 30.4872 32.4291L37.529 39.4709C37.7897 39.7138 38.1344 39.846 38.4906 39.8397C38.8469 39.8334 39.1867 39.6891 39.4387 39.4372C39.6906 39.1853 39.8349 38.8454 39.8412 38.4892C39.8475 38.133 39.7152 37.7882 39.4724 37.5276ZM6.87569 20.1659C6.87569 17.537 7.65523 14.9672 9.11574 12.7814C10.5762 10.5956 12.6521 8.89201 15.0809 7.88599C17.5096 6.87998 20.1821 6.61676 22.7604 7.12962C25.3388 7.64248 27.7071 8.90839 29.566 10.7673C31.4249 12.6261 32.6908 14.9945 33.2036 17.5728C33.7165 20.1511 33.4533 22.8237 32.4473 25.2524C31.4412 27.6811 29.7376 29.757 27.5518 31.2175C25.366 32.678 22.7962 33.4576 20.1674 33.4576C16.6434 33.4537 13.2648 32.0521 10.773 29.5602C8.28119 27.0684 6.87957 23.6899 6.87569 20.1659Z" fill="#1A1B1B"/>
</svg>
