<svg width="36" height="48" viewBox="0 0 36 48" fill="none" xmlns="http://www.w3.org/2000/svg">
<g clip-path="url(#clip0_65_213)">
<path d="M18 3C17.2324 3 16.4644 3.29297 15.8794 3.87891L0.879395 18.8789C-0.29248 20.0508 -0.29248 21.9492 0.879395 23.1211C2.05127 24.293 3.94971 24.293 5.12158 23.1211L18 10.2375L30.8813 23.1188C32.0531 24.2906 33.9516 24.2906 35.1235 23.1188C36.2953 21.9469 36.2953 20.0484 35.1235 18.8766L20.1235 3.87656C19.5375 3.29063 18.7688 3 18 3Z" fill="#FCFCFC"/>
<path opacity="0.4" d="M15 13.2379V42.0004C15 43.6588 16.3434 44.916 17.9156 44.916C19.4878 44.916 21 43.6588 21 42.0004V13.2379L18 10.2379L15 13.2379Z" fill="#FCFCFC"/>
</g>
<defs>
<clipPath id="clip0_65_213">
<rect width="36" height="48" fill="white" transform="matrix(1 0 0 -1 0 48)"/>
</clipPath>
</defs>
</svg>
