<svg width="24" height="24" viewBox="0 0 24 24" fill="none" xmlns="http://www.w3.org/2000/svg">
<path d="M11 19.25H6.00004C4.42304 19.25 3.75004 18.577 3.75004 17V4.99998C3.75004 3.42298 4.42304 2.74998 6.00004 2.74998H11.25V4.99998C11.1913 5.50664 11.2479 6.02001 11.4156 6.50171C11.5833 6.98341 11.8577 7.42095 12.2184 7.78161C12.5791 8.14228 13.0166 8.41672 13.4983 8.58441C13.98 8.7521 14.4934 8.8087 15 8.74998H17.25V11C17.25 11.1989 17.3291 11.3897 17.4697 11.5303C17.6104 11.671 17.8011 11.75 18 11.75C18.1989 11.75 18.3897 11.671 18.5304 11.5303C18.671 11.3897 18.75 11.1989 18.75 11V7.99998C18.7501 7.90149 18.7307 7.80397 18.693 7.71301C18.6552 7.62205 18.5998 7.53945 18.53 7.46997L12.53 1.46998C12.4606 1.40018 12.378 1.34481 12.287 1.30705C12.196 1.2693 12.0985 1.2499 12 1.24998H6.00004C5.49338 1.19125 4.98 1.24785 4.4983 1.41554C4.0166 1.58323 3.57906 1.85768 3.2184 2.21834C2.85774 2.579 2.5833 3.01654 2.4156 3.49824C2.24791 3.97994 2.19131 4.49332 2.25004 4.99998V17C2.19131 17.5066 2.24791 18.02 2.4156 18.5017C2.5833 18.9834 2.85774 19.421 3.2184 19.7816C3.57906 20.1423 4.0166 20.4167 4.4983 20.5844C4.98 20.7521 5.49338 20.8087 6.00004 20.75H11C11.1989 20.75 11.3897 20.671 11.5304 20.5303C11.671 20.3897 11.75 20.1989 11.75 20C11.75 19.8011 11.671 19.6103 11.5304 19.4696C11.3897 19.329 11.1989 19.25 11 19.25ZM12.75 4.99998V3.81098L16.189 7.24998H15C13.423 7.24998 12.75 6.57698 12.75 4.99998ZM14 10.25C14.1989 10.25 14.3897 10.329 14.5304 10.4696C14.671 10.6103 14.75 10.8011 14.75 11C14.75 11.1989 14.671 11.3897 14.5304 11.5303C14.3897 11.671 14.1989 11.75 14 11.75H7.00004C6.80112 11.75 6.61036 11.671 6.46971 11.5303C6.32905 11.3897 6.25004 11.1989 6.25004 11C6.25004 10.8011 6.32905 10.6103 6.46971 10.4696C6.61036 10.329 6.80112 10.25 7.00004 10.25H14ZM11.75 15C11.75 15.1989 11.671 15.3897 11.5304 15.5303C11.3897 15.671 11.1989 15.75 11 15.75H7.00004C6.80112 15.75 6.61036 15.671 6.46971 15.5303C6.32905 15.3897 6.25004 15.1989 6.25004 15C6.25004 14.8011 6.32905 14.6103 6.46971 14.4696C6.61036 14.329 6.80112 14.25 7.00004 14.25H11C11.1989 14.25 11.3897 14.329 11.5304 14.4696C11.671 14.6103 11.75 14.8011 11.75 15Z" fill="#0F1010"/>
<path d="M16.4176 12.9022C15.7089 12.9022 15.0161 13.1123 14.4269 13.5061C13.8376 13.8998 13.3783 14.4594 13.1071 15.1142C12.8359 15.769 12.7649 16.4895 12.9032 17.1846C13.0414 17.8797 13.3827 18.5182 13.8838 19.0193C14.385 19.5204 15.0235 19.8617 15.7186 20C16.4137 20.1382 17.1342 20.0673 17.7889 19.7961C18.4437 19.5249 19.0033 19.0656 19.3971 18.4763C19.7908 17.887 20.001 17.1942 20.001 16.4855C19.9999 15.5355 19.622 14.6246 18.9503 13.9529C18.2785 13.2811 17.3677 12.9032 16.4176 12.9022ZM16.4176 19.5688C15.8078 19.5688 15.2117 19.388 14.7046 19.0492C14.1976 18.7104 13.8024 18.2288 13.569 17.6654C13.3356 17.102 13.2746 16.4821 13.3936 15.884C13.5125 15.2859 13.8062 14.7365 14.2374 14.3053C14.6686 13.874 15.218 13.5804 15.8161 13.4614C16.4142 13.3424 17.0342 13.4035 17.5976 13.6369C18.161 13.8702 18.6425 14.2654 18.9813 14.7725C19.3201 15.2795 19.501 15.8757 19.501 16.4855C19.5001 17.303 19.175 18.0867 18.5969 18.6648C18.0189 19.2428 17.2351 19.5679 16.4176 19.5688ZM17.5943 17.3088C17.6189 17.3317 17.6386 17.3593 17.6522 17.39C17.6659 17.4207 17.6732 17.4538 17.6738 17.4873C17.6744 17.5209 17.6683 17.5542 17.6557 17.5854C17.6431 17.6165 17.6244 17.6448 17.6007 17.6685C17.5769 17.6922 17.5486 17.711 17.5175 17.7235C17.4864 17.7361 17.453 17.7423 17.4195 17.7417C17.3859 17.7411 17.3528 17.7338 17.3221 17.7201C17.2915 17.7064 17.2639 17.6867 17.241 17.6622L16.241 16.6622C16.2177 16.639 16.1993 16.6115 16.1867 16.5812C16.1741 16.5508 16.1676 16.5183 16.1676 16.4855V14.8188C16.1676 14.7525 16.194 14.6889 16.2409 14.6421C16.2878 14.5952 16.3513 14.5688 16.4176 14.5688C16.4839 14.5688 16.5475 14.5952 16.5944 14.6421C16.6413 14.6889 16.6676 14.7525 16.6676 14.8188V16.3818L17.5943 17.3088Z" fill="#0F1010"/>
</svg>
