<svg width="24" height="24" viewBox="0 0 24 24" fill="none" xmlns="http://www.w3.org/2000/svg">
<path d="M21.176 9.60759C20.7847 9.12811 20.2807 8.7531 19.709 8.51611C19.1373 8.27913 18.5158 8.18756 17.9 8.24959H14.747V5.76259C14.7475 5.14526 14.5954 4.53738 14.3042 3.99305C14.013 3.44871 13.5918 2.9848 13.078 2.64259C12.7827 2.44598 12.4466 2.3192 12.095 2.27187C11.7434 2.22453 11.3857 2.25789 11.049 2.3694C10.7122 2.48091 10.4053 2.66765 10.1515 2.91545C9.89763 3.16326 9.70357 3.46561 9.584 3.79959L7.456 10.2496H4.5C3.90351 10.2504 3.33167 10.4877 2.90989 10.9095C2.4881 11.3313 2.25079 11.9031 2.25 12.4996V19.4996C2.25079 20.0961 2.4881 20.6679 2.90989 21.0897C3.33167 21.5115 3.90351 21.7488 4.5 21.7496H15.9C18.4 21.7496 19.008 20.5366 19.458 19.1856L21.458 13.1856C21.7001 12.61 21.8009 11.9848 21.7518 11.3623C21.7027 10.7398 21.5053 10.1381 21.176 9.60759ZM3.75 19.4996V12.4996C3.75026 12.3008 3.82937 12.1101 3.96996 11.9696C4.11056 11.829 4.30117 11.7499 4.5 11.7496H6.5V20.2496H4.5C4.30117 20.2493 4.11056 20.1702 3.96996 20.0296C3.82937 19.889 3.75026 19.6984 3.75 19.4996ZM20.037 12.7106L18.037 18.7106C17.682 19.7776 17.459 20.2496 15.903 20.2496H8V11.7496C8.15759 11.7493 8.3111 11.6994 8.43873 11.607C8.56636 11.5145 8.66162 11.3842 8.711 11.2346L11 4.29359C11.0445 4.17574 11.1151 4.06947 11.2064 3.9827C11.2978 3.89593 11.4075 3.83089 11.5275 3.79244C11.6474 3.75399 11.7745 3.74311 11.8993 3.76063C12.0241 3.77814 12.1433 3.82359 12.248 3.89359C12.5561 4.09901 12.8086 4.37741 12.9831 4.70402C13.1575 5.03063 13.2485 5.3953 13.248 5.76559V8.99959C13.248 9.1985 13.327 9.38927 13.4677 9.52992C13.6083 9.67057 13.7991 9.74959 13.998 9.74959H17.9C18.2758 9.71095 18.6555 9.7569 19.0113 9.88408C19.3671 10.0113 19.6898 10.2164 19.956 10.4846C20.1389 10.8247 20.2413 11.2023 20.2553 11.5882C20.2694 11.9741 20.1947 12.3581 20.037 12.7106Z" fill="#0F1010"/>
</svg>
