<svg width="24" height="24" viewBox="0 0 24 24" fill="none" xmlns="http://www.w3.org/2000/svg">
<path d="M21.176 14.3924C20.7847 14.8719 20.2807 15.2469 19.709 15.4839C19.1373 15.7209 18.5158 15.8124 17.9 15.7504H14.747V18.2374C14.7475 18.8547 14.5954 19.4626 14.3042 20.007C14.013 20.5513 13.5918 21.0152 13.078 21.3574C12.7827 21.554 12.4466 21.6808 12.095 21.7281C11.7434 21.7755 11.3857 21.7421 11.049 21.6306C10.7122 21.5191 10.4053 21.3324 10.1515 21.0845C9.89763 20.8367 9.70357 20.5344 9.584 20.2004L7.456 13.7504H4.5C3.90351 13.7496 3.33167 13.5123 2.90989 13.0905C2.4881 12.6687 2.25079 12.0969 2.25 11.5004V4.50041C2.25079 3.90392 2.4881 3.33208 2.90989 2.9103C3.33167 2.48851 3.90351 2.25121 4.5 2.25041H15.9C18.4 2.25041 19.008 3.46341 19.458 4.81441L21.458 10.8144C21.7001 11.39 21.8009 12.0152 21.7518 12.6377C21.7027 13.2602 21.5053 13.8619 21.176 14.3924ZM3.75 4.50041V11.5004C3.75026 11.6992 3.82937 11.8899 3.96996 12.0304C4.11056 12.171 4.30117 12.2501 4.5 12.2504H6.5V3.75041H4.5C4.30117 3.75068 4.11056 3.82978 3.96996 3.97038C3.82937 4.11097 3.75026 4.30158 3.75 4.50041ZM20.037 11.2894L18.037 5.28941C17.682 4.22241 17.459 3.75041 15.903 3.75041H8V12.2504C8.15759 12.2507 8.3111 12.3006 8.43873 12.393C8.56636 12.4855 8.66162 12.6158 8.711 12.7654L11 19.7064C11.0445 19.8243 11.1151 19.9305 11.2064 20.0173C11.2978 20.1041 11.4075 20.1691 11.5275 20.2076C11.6474 20.246 11.7745 20.2569 11.8993 20.2394C12.0241 20.2219 12.1433 20.1764 12.248 20.1064C12.5561 19.901 12.8086 19.6226 12.9831 19.296C13.1575 18.9694 13.2485 18.6047 13.248 18.2344V15.0004C13.248 14.8015 13.327 14.6107 13.4677 14.4701C13.6083 14.3294 13.7991 14.2504 13.998 14.2504H17.9C18.2758 14.2891 18.6555 14.2431 19.0113 14.1159C19.3671 13.9887 19.6898 13.7836 19.956 13.5154C20.1389 13.1753 20.2413 12.7977 20.2553 12.4118C20.2694 12.0259 20.1947 11.6419 20.037 11.2894Z" fill="#0F1010"/>
</svg>
