<svg width="48" height="48" viewBox="0 0 48 48" fill="none" xmlns="http://www.w3.org/2000/svg">
<path fill-rule="evenodd" clip-rule="evenodd" d="M8 0C3.58172 0 0 3.58172 0 8V40C0 44.4183 3.58172 48 8 48H40C44.4183 48 48 44.4183 48 40V8C48 3.58172 44.4183 0 40 0H8ZM40.1632 9.56732C40.7618 10.061 40.8834 10.7296 40.9221 10.9488L40.9239 10.9507C40.9718 11.2564 41.0326 11.8809 40.9792 12.4151C40.5132 17.3756 38.4556 29.4812 37.5089 34.5615C36.9452 37.6119 35.619 38.3634 34.604 38.4573C34.4769 38.4684 34.348 38.4739 34.2246 38.4739C32.6589 38.4739 31.3989 37.5732 30.1795 36.6982C30.1471 36.6752 30.1146 36.6521 30.0821 36.629C29.7889 36.4205 29.489 36.2073 29.1756 36.0001C27.7867 35.0828 26.7092 34.346 25.6334 33.6092C25.5634 33.5612 25.4934 33.5133 25.4234 33.4653C24.4869 32.8237 23.5377 32.1733 22.362 31.3969C21.1003 30.5607 20.4721 29.7539 20.3892 28.8568C20.277 27.6297 21.1957 26.7388 22.1688 25.7951L22.1723 25.7917C22.3989 25.5725 22.6347 25.3441 22.8649 25.1028C22.9736 24.9886 23.5188 24.4784 24.2888 23.7581C24.3496 23.7012 24.4139 23.641 24.4815 23.5777C25.5376 22.5892 27.3823 20.8626 28.8625 19.4239C26.9781 20.6691 23.8596 22.7635 18.8033 26.1933C17.4181 27.153 16.1747 27.6116 14.9553 27.5821C13.6328 27.5545 11.2455 26.8343 9.94139 26.4069L9.27827 26.1951C7.56889 25.6536 5.8024 25.0936 6.01792 23.3989C6.13028 22.4595 7.00339 21.7061 8.8454 20.9693C17.7036 17.0901 23.6938 14.4947 26.6484 13.2569C35.5674 9.52864 37.0834 9.02577 38.3801 9.00182C38.5662 8.99077 39.4835 9.01288 40.1632 9.56732ZM35.6982 34.2244C36.6394 29.1718 38.6822 17.1453 39.1446 12.2345L39.1427 12.2364C39.1759 11.9269 39.1409 11.4812 39.104 11.2583C39.0782 11.1164 39.0451 11.0372 38.9935 10.993C38.8848 10.9065 38.6122 10.8512 38.4114 10.8457C37.3891 10.8623 35.2211 11.6709 27.3576 14.957C24.4122 16.1912 18.4275 18.7829 9.56931 22.6621L9.54168 22.6732C8.03307 23.2755 7.83229 23.6679 7.83229 23.6716C7.98702 23.8539 9.09775 24.2057 9.83087 24.4378L10.5106 24.657C12.5368 25.3183 14.2112 25.7236 14.9922 25.7401C15.7677 25.7807 16.7126 25.3994 17.7607 24.6736C30.3969 16.1009 30.6584 16.042 30.9624 15.9738C31.0692 15.948 31.2571 15.9057 31.4781 15.9057C31.7655 15.9057 32.1099 15.9775 32.412 16.252C32.8983 16.6775 32.9075 17.348 32.8357 17.6758C32.7196 18.1732 32.3273 18.7589 25.5413 25.1028C25.3872 25.2471 25.2425 25.3825 25.1091 25.5073C24.6143 25.9701 24.2753 26.2871 24.1912 26.3756C23.9443 26.6353 23.692 26.8803 23.4488 27.1143L23.417 27.1453C22.8355 27.7122 22.1876 28.3436 22.2202 28.6873C22.2294 28.7887 22.3418 29.1755 23.377 29.8607C24.6461 30.7025 25.6592 31.3951 26.6723 32.0895C27.7407 32.8208 28.8091 33.5521 30.1869 34.462C30.5394 34.6959 30.8784 34.9383 31.2086 35.1744L31.2479 35.2025L31.2944 35.2357C32.4602 36.0673 33.3765 36.7209 34.4327 36.6227C34.8361 36.5859 35.3813 35.9356 35.6982 34.2244Z" fill="#005B8E"/>
</svg>
