<svg width="48" height="48" viewBox="0 0 48 48" fill="none" xmlns="http://www.w3.org/2000/svg">
<path d="M24 18.285C22.8698 18.2854 21.765 18.621 20.8255 19.2492C19.886 19.8774 19.1538 20.7701 18.7216 21.8144C18.2893 22.8588 18.1765 24.0078 18.3972 25.1163C18.618 26.2247 19.1624 27.2428 19.9618 28.0419C20.7611 28.8409 21.7794 29.385 22.888 29.6053C23.9965 29.8257 25.1455 29.7124 26.1897 29.2798C27.2338 28.8472 28.1263 28.1146 28.7541 27.1749C29.382 26.2351 29.7171 25.1302 29.7171 24C29.716 22.4843 29.1132 21.031 28.0412 19.9594C26.9693 18.8878 25.5157 18.2856 24 18.285ZM37.3639 13.8927C37.3626 13.8923 37.3615 13.8914 37.361 13.8901C37.07 13.1536 36.631 12.4846 36.071 11.9247C35.5105 11.3642 34.8409 10.9249 34.1036 10.6339C31.8536 9.74571 26.4964 9.945 24 9.945C21.5036 9.945 16.1518 9.73821 13.8954 10.6339C13.158 10.9249 12.4884 11.3642 11.9279 11.9247C11.3674 12.4852 10.9281 13.1548 10.6371 13.8921C9.75 16.1421 9.94821 21.5046 9.94821 23.9989C9.94821 26.4932 9.75 31.8493 10.6414 34.1068C10.9324 34.8441 11.3717 35.5138 11.9322 36.0742C12.4927 36.6347 13.1623 37.0741 13.8996 37.365C16.1496 38.2532 21.5068 38.0539 24.0043 38.0539C26.5018 38.0539 31.8514 38.2607 34.1079 37.365C34.8452 37.0741 35.5148 36.6347 36.0753 36.0742C36.6358 35.5138 37.0751 34.8441 37.3661 34.1068C38.2607 31.8568 38.055 26.4943 38.055 24C38.055 21.5064 38.2606 16.1539 37.3669 13.8952C37.3663 13.8939 37.3653 13.893 37.3639 13.8927ZM24 32.7857C22.2624 32.7857 20.5637 32.2704 19.1189 31.3051C17.6741 30.3397 16.548 28.9675 15.8831 27.3621C15.2181 25.7568 15.0441 23.9903 15.3831 22.286C15.7221 20.5817 16.5589 19.0163 17.7876 17.7876C19.0163 16.5589 20.5817 15.7221 22.286 15.3831C23.9903 15.0441 25.7568 15.2181 27.3621 15.8831C28.9675 16.548 30.3397 17.6741 31.3051 19.1189C32.2704 20.5637 32.7857 22.2624 32.7857 24C32.7871 25.1542 32.5608 26.2972 32.1198 27.3638C31.6788 28.4304 31.0317 29.3995 30.2156 30.2156C29.3995 31.0317 28.4304 31.6788 27.3638 32.1198C26.2972 32.5608 25.1542 32.7871 24 32.7857ZM33.15 16.8986C33.1486 16.8972 33.1468 16.8964 33.1448 16.8964C32.7402 16.896 32.3448 16.776 32.0082 16.5513C31.6709 16.3261 31.4079 16.0059 31.2525 15.6312C31.0971 15.2565 31.0563 14.8442 31.1353 14.4463C31.2144 14.0484 31.4096 13.6829 31.6963 13.396C31.9831 13.1091 32.3485 12.9137 32.7463 12.8345C33.1441 12.7553 33.5565 12.7958 33.9313 12.951C34.3061 13.1062 34.6264 13.369 34.8518 13.7063C35.0772 14.0435 35.1975 14.4401 35.1975 14.8457C35.1986 15.1151 35.1466 15.382 35.0443 15.6312C34.942 15.8804 34.7916 16.107 34.6015 16.2979C34.4115 16.4888 34.1857 16.6404 33.9369 16.7438C33.6891 16.8469 33.4235 16.9002 33.1552 16.9007C33.1532 16.9007 33.1514 16.8999 33.15 16.8986ZM42.8571 0H5.14286C3.77889 0 2.47078 0.541835 1.50631 1.50631C0.541835 2.47078 0 3.77889 0 5.14286L0 42.8571C0 44.2211 0.541835 45.5292 1.50631 46.4937C2.47078 47.4582 3.77889 48 5.14286 48H42.8571C44.2211 48 45.5292 47.4582 46.4937 46.4937C47.4582 45.5292 48 44.2211 48 42.8571V5.14286C48 3.77889 47.4582 2.47078 46.4937 1.50631C45.5292 0.541835 44.2211 0 42.8571 0ZM41.0229 31.0714C40.8846 33.8175 40.2579 36.2507 38.2532 38.25C36.2486 40.2493 33.8175 40.8889 31.0746 41.0196C28.245 41.1793 19.7614 41.1793 16.9318 41.0196C14.1857 40.8814 11.7611 40.2536 9.75321 38.25C7.74536 36.2464 7.11429 33.8121 6.98357 31.0714C6.82393 28.2407 6.82393 19.7561 6.98357 16.9286C7.12179 14.1825 7.74107 11.7493 9.75321 9.75C11.7654 7.75071 14.1964 7.11857 16.9318 6.98786C19.7614 6.82821 28.245 6.82821 31.0746 6.98786C33.8207 7.12607 36.2529 7.75393 38.2532 9.7575C40.2536 11.7611 40.8921 14.1954 41.0229 16.9414C41.1825 19.7614 41.1825 28.2386 41.0229 31.0714Z" fill="#005B8E"/>
</svg>
