<svg width="24" height="24" viewBox="0 0 24 24" fill="none" xmlns="http://www.w3.org/2000/svg">
<path d="M21.9 6.20804C21.6457 6.08422 21.3613 6.03549 21.0802 6.06755C20.7991 6.0996 20.533 6.21113 20.313 6.38904L17.75 8.43904V8.00004C17.8088 7.49338 17.7522 6.98 17.5845 6.4983C17.4168 6.0166 17.1423 5.57906 16.7817 5.2184C16.421 4.85774 15.9835 4.5833 15.5018 4.4156C15.0201 4.24791 14.5067 4.19131 14 4.25004H5.00004C4.49338 4.19131 3.98 4.24791 3.4983 4.4156C3.0166 4.5833 2.57906 4.85774 2.2184 5.2184C1.85774 5.57906 1.5833 6.0166 1.4156 6.4983C1.24791 6.98 1.19131 7.49338 1.25004 8.00004V16C1.19131 16.5067 1.24791 17.0201 1.4156 17.5018C1.5833 17.9835 1.85774 18.421 2.2184 18.7817C2.57906 19.1423 3.0166 19.4168 3.4983 19.5845C3.98 19.7522 4.49338 19.8088 5.00004 19.75H14C14.5067 19.8088 15.0201 19.7522 15.5018 19.5845C15.9835 19.4168 16.421 19.1423 16.7817 18.7817C17.1423 18.421 17.4168 17.9835 17.5845 17.5018C17.7522 17.0201 17.8088 16.5067 17.75 16V15.561L20.313 17.611C20.5775 17.8246 20.9071 17.9411 21.247 17.941C21.4731 17.9407 21.6962 17.8898 21.9 17.792C22.1555 17.6704 22.3711 17.4786 22.5216 17.239C22.6721 16.9994 22.7513 16.722 22.75 16.439V7.56104C22.7513 7.2781 22.6721 7.00064 22.5216 6.76106C22.3711 6.52148 22.1555 6.32967 21.9 6.20804ZM16.25 16C16.25 17.577 15.577 18.25 14 18.25H5.00004C3.42304 18.25 2.75004 17.577 2.75004 16V8.00004C2.75004 6.42304 3.42304 5.75004 5.00004 5.75004H14C15.577 5.75004 16.25 6.42304 16.25 8.00004V16ZM21.25 16.44L17.75 13.64V10.36L21.25 7.56004V16.44ZM9.50004 8.12504C8.57336 8.16528 7.67348 8.448 6.8903 8.94497C6.10712 9.44193 5.46808 10.1357 5.03704 10.957C4.849 11.2723 4.74973 11.6325 4.74973 11.9995C4.74973 12.3666 4.849 12.7268 5.03704 13.042C5.46795 13.8635 6.10694 14.5575 6.89012 15.0547C7.67331 15.5518 8.57326 15.8347 9.50004 15.875C10.4267 15.8348 11.3266 15.5521 12.1098 15.0551C12.8929 14.5581 13.532 13.8643 13.963 13.043C14.1511 12.7278 14.2503 12.3676 14.2503 12.0005C14.2503 11.6335 14.1511 11.2733 13.963 10.958C13.5321 10.1365 12.8931 9.44255 12.1099 8.9454C11.3268 8.44825 10.4268 8.16537 9.50004 8.12504ZM12.674 12.275C12.3716 12.8695 11.9202 13.3755 11.3639 13.7435C10.8076 14.1116 10.1655 14.3292 9.50004 14.375C8.83458 14.3292 8.19236 14.1117 7.63607 13.7437C7.07978 13.3756 6.62841 12.8696 6.32604 12.275C6.27647 12.1917 6.25031 12.0965 6.25031 11.9995C6.25031 11.9026 6.27647 11.8074 6.32604 11.724C6.62862 11.1297 7.08006 10.624 7.63633 10.2561C8.1926 9.88825 8.83471 9.67082 9.50004 9.62504C10.1655 9.67082 10.8077 9.88836 11.364 10.2564C11.9203 10.6245 12.3717 11.1305 12.674 11.725C12.7236 11.8082 12.7498 11.9032 12.7498 12C12.7498 12.0969 12.7236 12.1919 12.674 12.275ZM10.52 12C10.52 12.1974 10.4616 12.3903 10.3522 12.5546C10.2427 12.7188 10.0871 12.8469 9.90499 12.9229C9.72285 12.9989 9.5223 13.0193 9.32859 12.9815C9.13489 12.9437 8.9567 12.8495 8.81646 12.7106C8.67621 12.5717 8.58019 12.3945 8.54049 12.2012C8.50078 12.0079 8.51916 11.8071 8.59332 11.6242C8.66747 11.4413 8.79409 11.2845 8.95722 11.1734C9.12035 11.0623 9.31269 11.002 9.51004 11H9.52004C9.78525 11 10.0396 11.1054 10.2271 11.2929C10.4147 11.4805 10.52 11.7348 10.52 12Z" fill="#25314C"/>
</svg>
